<mxfile host="app.diagrams.net" modified="2023-12-12T04:58:11.286Z" agent="Mozilla/5.0 (X11; Linux x86_64) AppleWebKit/537.36 (KHTML, like Gecko) Chrome/119.0.0.0 Safari/537.36" version="22.1.7" etag="8Pl0zCBymiENb0UK0P-P" type="github">
  <diagram name="Page-1" id="Oc6yml89ZkxuwWedB__P">
    <mxGraphModel>
      <root>
        <mxCell id="0" />
        <mxCell id="1" parent="0" />
      </root>
    </mxGraphModel>
  </diagram>
</mxfile>
